<?xml version="1.0" encoding="UTF-8" standalone="no"?>
<!-- Generator: Adobe Illustrator 16.0.0, SVG Export Plug-In . SVG Version: 6.00 Build 0)  -->

<svg
   xmlns:dc="http://purl.org/dc/elements/1.1/"
   xmlns:cc="http://creativecommons.org/ns#"
   xmlns:rdf="http://www.w3.org/1999/02/22-rdf-syntax-ns#"
   xmlns:svg="http://www.w3.org/2000/svg"
   xmlns="http://www.w3.org/2000/svg"
   xmlns:sodipodi="http://sodipodi.sourceforge.net/DTD/sodipodi-0.dtd"
   xmlns:inkscape="http://www.inkscape.org/namespaces/inkscape"
   version="1.1"
   id="Capa_1"
   x="0px"
   y="0px"
   width="100px"
   height="80px"
   viewBox="0 0 100 80"
   style="enable-background:new 0 0 100 80;"
   xml:space="preserve"
   inkscape:version="0.48.5 r10040"
   sodipodi:docname="small35.svg"><metadata
   id="metadata41"><rdf:RDF><cc:Work
       rdf:about=""><dc:format>image/svg+xml</dc:format><dc:type
         rdf:resource="http://purl.org/dc/dcmitype/StillImage" /><dc:title></dc:title></cc:Work></rdf:RDF></metadata><defs
   id="defs39" /><sodipodi:namedview
   pagecolor="#ffffff"
   bordercolor="#666666"
   borderopacity="1"
   objecttolerance="10"
   gridtolerance="10"
   guidetolerance="10"
   inkscape:pageopacity="0"
   inkscape:pageshadow="2"
   inkscape:window-width="640"
   inkscape:window-height="480"
   id="namedview37"
   showgrid="false"
   inkscape:zoom="2.95"
   inkscape:cx="50"
   inkscape:cy="40"
   inkscape:window-x="0"
   inkscape:window-y="0"
   inkscape:window-maximized="0"
   inkscape:current-layer="Capa_1" />
<g
   id="g3"
   style="fill:#f9f9f9">
	<path
   d="M50,30c-8.285,0-15,6.718-15,15c0,8.285,6.715,15,15,15c8.283,0,15-6.715,15-15C65,36.718,58.283,30,50,30z M90,15H78   c-1.65,0-3.428-1.28-3.949-2.846l-3.102-9.309C70.426,1.28,68.65,0,67,0H33c-1.65,0-3.428,1.28-3.949,2.846l-3.102,9.309   C25.426,13.72,23.65,15,22,15H10C4.5,15,0,19.5,0,25v45c0,5.5,4.5,10,10,10h80c5.5,0,10-4.5,10-10V25C100,19.5,95.5,15,90,15z    M50,70c-13.807,0-25-11.193-25-25c0-13.806,11.193-25,25-25c13.805,0,25,11.194,25,25C75,58.807,63.805,70,50,70z M86.5,31.993   c-1.932,0-3.5-1.566-3.5-3.5c0-1.932,1.568-3.5,3.5-3.5c1.934,0,3.5,1.568,3.5,3.5C90,30.427,88.433,31.993,86.5,31.993z"
   id="path5"
   style="fill:#f9f9f9" />
</g>
<g
   id="g7">
</g>
<g
   id="g9">
</g>
<g
   id="g11">
</g>
<g
   id="g13">
</g>
<g
   id="g15">
</g>
<g
   id="g17">
</g>
<g
   id="g19">
</g>
<g
   id="g21">
</g>
<g
   id="g23">
</g>
<g
   id="g25">
</g>
<g
   id="g27">
</g>
<g
   id="g29">
</g>
<g
   id="g31">
</g>
<g
   id="g33">
</g>
<g
   id="g35">
</g>
</svg>