<?xml version="1.0" encoding="UTF-8" standalone="no"?>
<!-- Generator: Adobe Illustrator 16.0.0, SVG Export Plug-In . SVG Version: 6.00 Build 0)  -->

<svg
   xmlns:dc="http://purl.org/dc/elements/1.1/"
   xmlns:cc="http://creativecommons.org/ns#"
   xmlns:rdf="http://www.w3.org/1999/02/22-rdf-syntax-ns#"
   xmlns:svg="http://www.w3.org/2000/svg"
   xmlns="http://www.w3.org/2000/svg"
   xmlns:sodipodi="http://sodipodi.sourceforge.net/DTD/sodipodi-0.dtd"
   xmlns:inkscape="http://www.inkscape.org/namespaces/inkscape"
   version="1.1"
   id="Layer_1"
   x="0px"
   y="0px"
   width="512px"
   height="512px"
   viewBox="0 0 512 512"
   enable-background="new 0 0 512 512"
   xml:space="preserve"
   inkscape:version="0.48.5 r10040"
   sodipodi:docname="femenina.svg"><metadata
   id="metadata13"><rdf:RDF><cc:Work
       rdf:about=""><dc:format>image/svg+xml</dc:format><dc:type
         rdf:resource="http://purl.org/dc/dcmitype/StillImage" /><dc:title></dc:title></cc:Work></rdf:RDF></metadata><defs
   id="defs11" /><sodipodi:namedview
   pagecolor="#ffffff"
   bordercolor="#666666"
   borderopacity="1"
   objecttolerance="10"
   gridtolerance="10"
   guidetolerance="10"
   inkscape:pageopacity="0"
   inkscape:pageshadow="2"
   inkscape:window-width="640"
   inkscape:window-height="480"
   id="namedview9"
   showgrid="false"
   inkscape:zoom="0.4609375"
   inkscape:cx="256"
   inkscape:cy="256"
   inkscape:window-x="0"
   inkscape:window-y="0"
   inkscape:window-maximized="0"
   inkscape:current-layer="Layer_1" />
<g
   id="g3"
   style="fill:#b3b3b3">
	<path
   d="M160,224h96c-35.375,0-64-28.656-64-64v-32c64,0,64-64,64-64s0,64,64,64v32c0,35.344-28.688,64-64,64h96   c17.688,0,32-14.328,32-32c-17.688,0-32-14.328-32-32V96c0-53.016-43-96-96-96c-53.063,0-96,42.984-96,96v64   c0,17.672-14.344,32-32,32C128,209.672,142.313,224,160,224z"
   id="path5"
   style="fill:#b3b3b3" />
	<path
   d="M352,288h-64l32,32l-64,96l-64-96l32-32h-64c-35.375,0-64,28.656-64,64v64v64c0,17.688,14.313,32,32,32h256   c17.688,0,32-14.313,32-32v-64v-64C416,316.656,387.313,288,352,288z"
   id="path7"
   style="fill:#b3b3b3" />
</g>
</svg>