<?xml version="1.0" encoding="UTF-8" standalone="no"?>
<!-- Generator: Adobe Illustrator 16.0.4, SVG Export Plug-In . SVG Version: 6.00 Build 0)  -->

<svg
   xmlns:dc="http://purl.org/dc/elements/1.1/"
   xmlns:cc="http://creativecommons.org/ns#"
   xmlns:rdf="http://www.w3.org/1999/02/22-rdf-syntax-ns#"
   xmlns:svg="http://www.w3.org/2000/svg"
   xmlns="http://www.w3.org/2000/svg"
   xmlns:sodipodi="http://sodipodi.sourceforge.net/DTD/sodipodi-0.dtd"
   xmlns:inkscape="http://www.inkscape.org/namespaces/inkscape"
   version="1.1"
   id="Layer_1"
   x="0px"
   y="0px"
   width="144px"
   height="144px"
   viewBox="0 0 144 144"
   enable-background="new 0 0 144 144"
   xml:space="preserve"
   inkscape:version="0.48.5 r10040"
   sodipodi:docname="mascota.svg"><metadata
   id="metadata9"><rdf:RDF><cc:Work
       rdf:about=""><dc:format>image/svg+xml</dc:format><dc:type
         rdf:resource="http://purl.org/dc/dcmitype/StillImage" /></cc:Work></rdf:RDF></metadata><defs
   id="defs7" /><sodipodi:namedview
   pagecolor="#ffffff"
   bordercolor="#666666"
   borderopacity="1"
   objecttolerance="10"
   gridtolerance="10"
   guidetolerance="10"
   inkscape:pageopacity="0"
   inkscape:pageshadow="2"
   inkscape:window-width="640"
   inkscape:window-height="480"
   id="namedview5"
   showgrid="false"
   inkscape:zoom="1.6388889"
   inkscape:cx="72"
   inkscape:cy="72"
   inkscape:window-x="0"
   inkscape:window-y="0"
   inkscape:window-maximized="0"
   inkscape:current-layer="Layer_1" />
<path
   d="M76.539,40.426c3.294-10.314,12.106-16.713,19.683-14.293c7.575,2.42,11.046,12.743,7.752,23.057  c-3.295,10.314-12.107,16.713-19.683,14.293C76.715,61.063,73.244,50.74,76.539,40.426z M120.941,52.873  c-6.852-2.189-14.963,4.038-18.116,13.908s-0.153,19.646,6.699,21.835s14.964-4.037,18.116-13.908  C130.794,64.837,127.795,55.062,120.941,52.873z M62.498,64.179c7.187-2.181,10.123-12.544,6.561-23.15  c-3.562-10.606-12.273-17.435-19.46-15.255s-10.123,12.543-6.561,23.15C46.6,59.53,55.314,66.359,62.498,64.179z M44.064,66.663  C40.66,56.583,32.353,50.087,25.508,52.15c-6.845,2.065-9.635,11.909-6.23,21.989s11.711,16.575,18.556,14.513  C44.678,86.589,47.468,76.743,44.064,66.663z M73.856,67.5h-1.483c0,0-29.306,4.273-29.165,38.023  c-0.092,19.819,16.394,11.009,16.394,11.009s6.966-7.191,12.771-7.191l1.483-0.225c5.805,0,12.771,6.966,12.771,6.966  s16.486,9.259,16.394-10.559C103.16,71.773,73.856,67.5,73.856,67.5z"
   id="path3"
   style="fill:#f9f9f9" />
</svg>