<?xml version="1.0" encoding="UTF-8" standalone="no"?>
<!-- Generator: Adobe Illustrator 17.1.0, SVG Export Plug-In . SVG Version: 6.00 Build 0)  -->

<svg
   xmlns:dc="http://purl.org/dc/elements/1.1/"
   xmlns:cc="http://creativecommons.org/ns#"
   xmlns:rdf="http://www.w3.org/1999/02/22-rdf-syntax-ns#"
   xmlns:svg="http://www.w3.org/2000/svg"
   xmlns="http://www.w3.org/2000/svg"
   xmlns:sodipodi="http://sodipodi.sourceforge.net/DTD/sodipodi-0.dtd"
   xmlns:inkscape="http://www.inkscape.org/namespaces/inkscape"
   version="1.1"
   id="Layer_1"
   x="0px"
   y="0px"
   viewBox="0 0 64 64"
   style="enable-background:new 0 0 64 64;"
   xml:space="preserve"
   inkscape:version="0.48.5 r10040"
   width="100%"
   height="100%"
   sodipodi:docname="dog56.svg"><metadata
   id="metadata9"><rdf:RDF><cc:Work
       rdf:about=""><dc:format>image/svg+xml</dc:format><dc:type
         rdf:resource="http://purl.org/dc/dcmitype/StillImage" /></cc:Work></rdf:RDF></metadata><defs
   id="defs7" /><sodipodi:namedview
   pagecolor="#ffffff"
   bordercolor="#666666"
   borderopacity="1"
   objecttolerance="10"
   gridtolerance="10"
   guidetolerance="10"
   inkscape:pageopacity="0"
   inkscape:pageshadow="2"
   inkscape:window-width="640"
   inkscape:window-height="480"
   id="namedview5"
   showgrid="false"
   inkscape:zoom="3.6875"
   inkscape:cx="32"
   inkscape:cy="32"
   inkscape:window-x="0"
   inkscape:window-y="0"
   inkscape:window-maximized="0"
   inkscape:current-layer="Layer_1" />
<path
   d="M6.003,44.72c0,0-2.555,10.335,7.084,10.335c9.638,0,10.683-3.6,10.683-3.6s2.439,2.671,4.064,3.019  c1.626,0.348,16.141,0.116,16.141,0.116s2.671-3.716-5.69-4.297c0,0,2.555-4.064,1.626-6.968l2.09-0.348c0,0,3.484,9.29,5.806,11.38  l4.761,0.116c0,0,1.51-0.697-2.323-3.6c-3.832-2.903-3.019-12.309-2.323-15.328c0.697-3.019,0.813-10.335-0.232-13.819  c-1.045-3.484,0-0.581,0-0.581s6.619,1.626,7.896-2.439c0,0,1.626-0.697,1.277-2.206c0,0-5.226-2.322-6.155-2.787  c0,0-0.697-2.076-2.7-2.816c0,0,0.682-2.889-0.203-3.339c0,0-3.135,1.974-3.368,2.555c0,0-0.232-3.368-0.813-3.948  c0,0-3.948,2.555-3.716,6.155c0,0-5.574,8.361-4.877,13.935c0,0-18.812,6.967-14.167,21.483  C20.867,47.739,13.667,50.991,6.003,44.72z"
   id="path3"
   style="fill:#b3b3b3" />
</svg>