<?xml version="1.0" encoding="UTF-8" standalone="no"?>
<!-- Generator: Adobe Illustrator 16.0.0, SVG Export Plug-In . SVG Version: 6.00 Build 0)  -->

<svg
   xmlns:dc="http://purl.org/dc/elements/1.1/"
   xmlns:cc="http://creativecommons.org/ns#"
   xmlns:rdf="http://www.w3.org/1999/02/22-rdf-syntax-ns#"
   xmlns:svg="http://www.w3.org/2000/svg"
   xmlns="http://www.w3.org/2000/svg"
   xmlns:sodipodi="http://sodipodi.sourceforge.net/DTD/sodipodi-0.dtd"
   xmlns:inkscape="http://www.inkscape.org/namespaces/inkscape"
   version="1.1"
   id="Layer_1"
   x="0px"
   y="0px"
   width="512px"
   height="512px"
   viewBox="0 0 512 512"
   style="enable-background:new 0 0 512 512;"
   xml:space="preserve"
   inkscape:version="0.48.5 r10040"
   sodipodi:docname="bills.svg"><metadata
   id="metadata37"><rdf:RDF><cc:Work
       rdf:about=""><dc:format>image/svg+xml</dc:format><dc:type
         rdf:resource="http://purl.org/dc/dcmitype/StillImage" /><dc:title></dc:title></cc:Work></rdf:RDF></metadata><defs
   id="defs35" /><sodipodi:namedview
   pagecolor="#ffffff"
   bordercolor="#666666"
   borderopacity="1"
   objecttolerance="10"
   gridtolerance="10"
   guidetolerance="10"
   inkscape:pageopacity="0"
   inkscape:pageshadow="2"
   inkscape:window-width="727"
   inkscape:window-height="480"
   id="namedview33"
   showgrid="false"
   inkscape:zoom="0.4609375"
   inkscape:cx="297.97509"
   inkscape:cy="256"
   inkscape:window-x="0"
   inkscape:window-y="0"
   inkscape:window-maximized="0"
   inkscape:current-layer="Layer_1"
   showguides="true"
   inkscape:guide-bbox="true"><sodipodi:guide
     orientation="0,1"
     position="494.64407,-8.6779661"
     id="guide3014" /></sodipodi:namedview>

<g
   id="g3"
   style="fill:#f9f9f9;fill-rule:nonzero;stroke:#000000;stroke-width:3.3;stroke-miterlimit:4;stroke-opacity:1;stroke-dasharray:none"
   transform="translate(-2.1694912,-2.1694917)">
	<g
   id="g5"
   style="fill:#f9f9f9;fill-rule:nonzero;stroke:#000000;stroke-width:3.3;stroke-miterlimit:4;stroke-opacity:1;stroke-dasharray:none">
		<path
   d="m 284.904,325.814 c -1.587,-1.739 -3.595,-3.038 -5.67,-4.121 -4.517,-2.357 -9.459,-3.786 -14.365,-5.076 v 38.016 c 7.963,-0.9 17.105,-3.79 21.286,-11.224 l 0,0 c 1.996,-3.55 2.393,-7.914 1.58,-11.867 -0.44,-2.141 -1.351,-4.107 -2.831,-5.728 z"
   id="path7"
   style="fill:#f9f9f9;fill-rule:nonzero;stroke:#000000;stroke-width:3.3;stroke-miterlimit:4;stroke-opacity:1;stroke-dasharray:none"
   inkscape:connector-curvature="0" />
	</g>
	<g
   id="g9"
   style="fill:#f9f9f9;fill-rule:nonzero;stroke:#000000;stroke-width:3.3;stroke-miterlimit:4;stroke-opacity:1;stroke-dasharray:none">
		<path
   d="m 286.114,343.483 c 0.016,-0.028 0.025,-0.044 0.042,-0.074 l 0,0 c -0.015,0.025 -0.028,0.049 -0.042,0.074 z"
   id="path11"
   style="fill:#f9f9f9;fill-rule:nonzero;stroke:#000000;stroke-width:3.3;stroke-miterlimit:4;stroke-opacity:1;stroke-dasharray:none"
   inkscape:connector-curvature="0" />
	</g>
	<g
   id="g13"
   style="fill:#f9f9f9;fill-rule:nonzero;stroke:#000000;stroke-width:3.3;stroke-miterlimit:4;stroke-opacity:1;stroke-dasharray:none">
		<path
   d="m 227.519,265.042 c -1.369,1.999 -2.228,4.27 -2.465,6.684 -0.237,2.419 -0.104,5.11 0.815,7.387 0.875,2.169 2.708,3.772 4.6,5.061 2.123,1.444 4.458,2.572 6.836,3.528 1.995,0.803 4.239,1.572 6.658,2.314 v -34.4 c -6.111,1.304 -12.788,4.088 -16.444,9.426 z"
   id="path15"
   style="fill:#f9f9f9;fill-rule:nonzero;stroke:#000000;stroke-width:3.3;stroke-miterlimit:4;stroke-opacity:1;stroke-dasharray:none"
   inkscape:connector-curvature="0" />
	</g>
	<g
   id="g17"
   style="fill:#f9f9f9;fill-rule:nonzero;stroke:#000000;stroke-width:3.3;stroke-miterlimit:4;stroke-opacity:1;stroke-dasharray:none">
		<path
   d="m 286.313,343.129 c -0.05,0.089 -0.103,0.182 -0.157,0.28 l 0,0 c 0.063,-0.114 0.111,-0.198 0.157,-0.28 z"
   id="path19"
   style="fill:#f9f9f9;fill-rule:nonzero;stroke:#000000;stroke-width:3.3;stroke-miterlimit:4;stroke-opacity:1;stroke-dasharray:none"
   inkscape:connector-curvature="0" />
	</g>
	<g
   id="g21"
   style="fill:#f9f9f9;fill-rule:nonzero;stroke:#000000;stroke-width:3.3;stroke-miterlimit:4;stroke-opacity:1;stroke-dasharray:none">
		<path
   d="m 286.513,342.773 c 0.013,-0.024 0.015,-0.026 0,0 l 0,0 z"
   id="path23"
   style="fill:#f9f9f9;fill-rule:nonzero;stroke:#000000;stroke-width:3.3;stroke-miterlimit:4;stroke-opacity:1;stroke-dasharray:none"
   inkscape:connector-curvature="0" />
	</g>
	<g
   id="g25"
   style="fill:#f9f9f9;fill-rule:nonzero;stroke:#000000;stroke-width:3.3;stroke-miterlimit:4;stroke-opacity:1;stroke-dasharray:none">
		<path
   d="m 278.262,135.979 c 32.33,-27.158 53.931,-88.341 40.637,-91.017 -17.664,-3.557 -56.022,12.04 -74.562,14.788 -26.296,3.175 -54.936,-28.515 -71.012,-10.851 -13.071,14.362 9.371,66.592 44.482,89.346 -104.751,51.484 -251.987,309.938 4.874,328.691 355.411,25.949 177.444,-280.787 55.581,-330.957 z m 30.524,203.829 c -1.093,10.076 -6.433,19.188 -14.415,25.374 -8.428,6.532 -18.999,9.57 -29.502,10.421 v 11.133 c 0,2.978 -1.301,5.86 -3.531,7.832 -3.066,2.711 -7.569,3.38 -11.289,1.667 -3.673,-1.691 -6.086,-5.457 -6.086,-9.499 v -12.168 c -1.801,-0.342 -3.589,-0.749 -5.356,-1.235 -9.816,-2.697 -18.921,-7.954 -25.572,-15.732 -3.313,-3.877 -6.014,-8.277 -7.882,-13.026 -0.488,-1.241 -0.923,-2.504 -1.304,-3.783 -0.345,-1.157 -0.701,-2.333 -0.824,-3.539 -0.207,-2.023 0.194,-4.087 1.137,-5.889 1.938,-3.707 6.022,-5.946 10.192,-5.574 4.104,0.365 7.701,3.212 8.993,7.124 0.398,1.205 0.668,2.441 1.115,3.632 0.443,1.184 0.978,2.335 1.607,3.431 1.242,2.158 2.798,4.148 4.59,5.875 3.694,3.558 8.399,5.872 13.304,7.248 v -41.362 c -9.591,-2.484 -19.491,-5.691 -27.411,-11.848 -3.849,-2.994 -7.115,-6.714 -9.254,-11.117 -2.257,-4.648 -3.192,-9.825 -3.23,-14.966 -0.039,-5.221 0.953,-10.397 3.131,-15.153 2.04,-4.454 4.977,-8.453 8.578,-11.768 7.7,-7.087 17.928,-11.04 28.187,-12.492 v -0.91 -10.647 c 0,-2.978 1.301,-5.86 3.531,-7.832 3.066,-2.711 7.568,-3.381 11.289,-1.667 3.672,1.691 6.086,5.457 6.086,9.499 v 10.647 0.847 c 1.367,0.172 2.73,0.378 4.086,0.624 10.074,1.823 19.927,5.983 27.294,13.246 3.49,3.44 6.346,7.539 8.356,12.009 0.561,1.247 1.052,2.524 1.477,3.824 0.396,1.213 0.794,2.462 0.983,3.728 0.302,2.02 -0.005,4.109 -0.871,5.958 -1.772,3.788 -5.746,6.2 -9.927,6.02 -4.108,-0.178 -7.83,-2.854 -9.3,-6.694 -0.438,-1.141 -0.658,-2.35 -1.104,-3.49 -0.451,-1.153 -1.035,-2.253 -1.708,-3.292 -1.308,-2.02 -3.003,-3.752 -4.937,-5.179 -4.191,-3.094 -9.273,-4.705 -14.35,-5.607 v 39.582 c 6.035,1.445 12.075,3.021 17.857,5.301 8.74,3.446 17.02,8.73 21.79,17.062 -0.74,-1.298 -1.46,-2.563 0.026,0.043 1.458,2.56 0.762,1.34 0.03,0.057 3.792,6.691 5.038,14.688 4.214,22.285 z"
   id="path27"
   style="fill:#f9f9f9;fill-rule:nonzero;stroke:#000000;stroke-width:3.3;stroke-miterlimit:4;stroke-opacity:1;stroke-dasharray:none"
   inkscape:connector-curvature="0" />
	</g>
	<g
   id="g29"
   style="fill:#f9f9f9;fill-rule:nonzero;stroke:#000000;stroke-width:3.3;stroke-miterlimit:4;stroke-opacity:1;stroke-dasharray:none">
		<path
   d="m 286.003,343.679 c -0.061,0.109 -0.115,0.205 -0.157,0.278 0.037,-0.063 0.09,-0.158 0.157,-0.278 z"
   id="path31"
   style="fill:#f9f9f9;fill-rule:nonzero;stroke:#000000;stroke-width:3.3;stroke-miterlimit:4;stroke-opacity:1;stroke-dasharray:none"
   inkscape:connector-curvature="0" />
	</g>
</g></svg>