<?xml version="1.0" encoding="iso-8859-1"?>
<!-- Generator: Adobe Illustrator 17.1.0, SVG Export Plug-In . SVG Version: 6.00 Build 0)  -->
<!DOCTYPE svg PUBLIC "-//W3C//DTD SVG 1.1//EN" "http://www.w3.org/Graphics/SVG/1.1/DTD/svg11.dtd">
<svg version="1.1" id="Layer_1" xmlns="http://www.w3.org/2000/svg" xmlns:xlink="http://www.w3.org/1999/xlink" x="0px" y="0px"
	 viewBox="0 0 64 64" style="enable-background:new 0 0 64 64;" xml:space="preserve">
<path d="M43.377,59.071c0,0,10.895,0.392,9.563-7.446s-4.625-20.849-4.625-21.398c0,0-0.558-1.156-1.411,1.332
	c0,0-1.019,3.331-2.508,1.568c-1.489-1.764-2.43-2.43-3.135-1.568c-0.705,0.862-1.137,3.684-2.351,2.665
	c-1.215-1.019-1.92-2.43-2.939-2.43s-1.803,4.781-3.331,3.449s-3.912-2.391-3.919-0.784c0,0-0.235,17.401,1.96,22.574
	C31.933,60.56,42.75,59.071,43.377,59.071z"/>
<path d="M33.715,26.826c0.561,0.787,1.613,1,2.4,0.439c0.426-0.304,0.632-0.735,0.682-1.218c0.473,0.11,0.988,0.026,1.415-0.278
	c0.787-0.561,0.932-1.627,0.37-2.414c-0.502-0.704-1.443-0.912-2.22-0.534l-2.446-3.43c0.611-0.611,0.721-1.569,0.219-2.272
	c-0.561-0.787-1.635-0.984-2.422-0.423C31.287,17,31.049,17.454,31,17.936c-0.473-0.11-0.984-0.03-1.41,0.274
	c-0.787,0.561-0.885,1.594-0.324,2.381c0.491,0.688,1.427,0.886,2.216,0.525l2.456,3.445C33.34,25.19,33.224,26.138,33.715,26.826z"
	/>
<path d="M26.978,27.146c0.253-0.253,0.343-0.567,0.322-0.898c0.331,0.021,0.669-0.094,0.922-0.347
	c0.467-0.467,0.444-1.202-0.023-1.669c-0.418-0.417-1.075-0.452-1.556-0.109l-2.036-2.036c0.343-0.481,0.308-1.139-0.109-1.556
	c-0.467-0.467-1.213-0.479-1.68-0.011c-0.253,0.253-0.362,0.585-0.341,0.916c-0.331-0.021-0.666,0.091-0.919,0.344
	c-0.467,0.467-0.417,1.174,0.051,1.641c0.408,0.408,1.062,0.436,1.553,0.104l2.044,2.044c-0.332,0.491-0.303,1.143,0.105,1.552
	C25.778,27.588,26.511,27.613,26.978,27.146z"/>
<path d="M7.645,25.669c-0.242,0.335-0.346,0.763-0.247,1.198c0.183,0.803,0.963,1.219,1.766,1.036c0.702-0.16,1.165-0.831,1.14-1.57
	l3.514-0.8c0.298,0.677,1.005,1.079,1.707,0.919c0.803-0.183,1.315-0.94,1.133-1.743c-0.099-0.435-0.37-0.738-0.733-0.936
	c0.242-0.335,0.345-0.768,0.246-1.203c-0.183-0.803-0.973-1.266-1.776-1.083c-0.718,0.164-1.19,0.835-1.148,1.57l-3.5,0.797
	c-0.28-0.681-0.997-1.081-1.715-0.918c-0.803,0.183-1.31,0.963-1.127,1.766C7.003,25.136,7.282,25.471,7.645,25.669z"/>
<path d="M30.022,29.624l1.63,1.63c-0.265,0.392-0.242,0.912,0.084,1.237c0.373,0.372,0.957,0.392,1.329,0.02
	c0.202-0.202,0.274-0.452,0.257-0.716c0.264,0.017,0.534-0.075,0.735-0.277c0.372-0.373,0.354-0.958-0.018-1.331
	c-0.333-0.333-0.857-0.36-1.241-0.087l-1.623-1.623c0.273-0.384,0.246-0.908-0.087-1.241c-0.373-0.372-0.967-0.382-1.34-0.009
	c-0.202,0.202-0.289,0.467-0.272,0.731c-0.264-0.017-0.531,0.073-0.733,0.274c-0.372,0.373-0.332,0.936,0.04,1.309
	C29.109,29.867,29.63,29.889,30.022,29.624z"/>
<path d="M45.345,23.136c0.014-0.661-0.493-1.207-1.154-1.222c-0.358-0.008-0.673,0.143-0.898,0.388
	c-0.214-0.254-0.526-0.418-0.884-0.426c-0.661-0.014-1.136,0.511-1.151,1.172c-0.013,0.577,0.419,1.069,0.999,1.194l-0.063,2.89
	c-0.585,0.1-1.035,0.572-1.048,1.149c-0.014,0.661,0.475,1.207,1.135,1.221c0.358,0.008,0.647-0.144,0.871-0.388
	c0.214,0.254,0.531,0.418,0.888,0.426c0.661,0.014,1.175-0.51,1.189-1.171c0.013-0.59-0.417-1.089-0.998-1.199l0.062-2.878
	C44.881,24.206,45.332,23.726,45.345,23.136z"/>
<path d="M38.945,7.824c0.017-0.767-0.573-1.402-1.34-1.419c-0.415-0.009-0.782,0.166-1.043,0.45
	c-0.248-0.295-0.611-0.486-1.027-0.495c-0.767-0.017-1.319,0.594-1.336,1.361c-0.015,0.67,0.487,1.241,1.16,1.386l-0.073,3.356
	c-0.679,0.116-1.203,0.664-1.217,1.334c-0.017,0.767,0.551,1.402,1.318,1.418c0.415,0.009,0.751-0.167,1.012-0.451
	c0.248,0.295,0.616,0.486,1.031,0.495c0.767,0.017,1.365-0.593,1.381-1.36c0.015-0.686-0.484-1.265-1.158-1.393l0.073-3.343
	C38.406,9.066,38.93,8.509,38.945,7.824z"/>
<path d="M24.627,11.79c-0.021,0.947,0.681,1.731,1.628,1.752c0.513,0.011,0.927-0.206,1.249-0.557
	c0.307,0.364,0.761,0.6,1.274,0.611c0.947,0.021,1.685-0.732,1.706-1.679c0.018-0.847-0.598-1.562-1.431-1.72l0.09-4.128
	c0.838-0.122,1.486-0.81,1.504-1.656c0.021-0.947-0.707-1.732-1.655-1.752c-0.513-0.011-0.965,0.206-1.288,0.556
	c-0.307-0.364-0.755-0.6-1.268-0.611c-0.947-0.021-1.63,0.733-1.65,1.68c-0.018,0.828,0.601,1.533,1.433,1.712l-0.09,4.145
	C25.291,10.285,24.645,10.962,24.627,11.79z"/>
<circle cx="48.197" cy="16.862" r="2.469"/>
<circle cx="19.039" cy="14.433" r="3.018"/>
<circle cx="22.723" cy="34.733" r="3.018"/>
<circle cx="16.061" cy="3.302" r="2.469"/>
</svg>
