<?xml version="1.0" encoding="UTF-8" standalone="no"?>
<!-- Created with Inkscape (http://www.inkscape.org/) -->

<svg
   xmlns:dc="http://purl.org/dc/elements/1.1/"
   xmlns:cc="http://creativecommons.org/ns#"
   xmlns:rdf="http://www.w3.org/1999/02/22-rdf-syntax-ns#"
   xmlns:svg="http://www.w3.org/2000/svg"
   xmlns="http://www.w3.org/2000/svg"
   xmlns:sodipodi="http://sodipodi.sourceforge.net/DTD/sodipodi-0.dtd"
   xmlns:inkscape="http://www.inkscape.org/namespaces/inkscape"
   width="744.09448819"
   height="1052.3622047"
   id="svg2"
   version="1.1"
   inkscape:version="0.48.4 r9939"
   sodipodi:docname="New document 1">
  <defs
     id="defs4" />
  <sodipodi:namedview
     id="base"
     pagecolor="#ffffff"
     bordercolor="#666666"
     borderopacity="1.0"
     inkscape:pageopacity="0.0"
     inkscape:pageshadow="2"
     inkscape:zoom="0.35"
     inkscape:cx="375"
     inkscape:cy="520"
     inkscape:document-units="px"
     inkscape:current-layer="layer1"
     showgrid="false"
     inkscape:window-width="1600"
     inkscape:window-height="837"
     inkscape:window-x="-8"
     inkscape:window-y="-8"
     inkscape:window-maximized="1" />
  <metadata
     id="metadata7">
    <rdf:RDF>
      <cc:Work
         rdf:about="">
        <dc:format>image/svg+xml</dc:format>
        <dc:type
           rdf:resource="http://purl.org/dc/dcmitype/StillImage" />
        <dc:title></dc:title>
      </cc:Work>
    </rdf:RDF>
  </metadata>
  <g
     inkscape:label="Layer 1"
     inkscape:groupmode="layer"
     id="layer1">
    <g
       id="g2986"
       transform="translate(20.77085,40.303583)">
	<path
   id="path2988"
   d="m 177.426,83.732 c 0.005,-0.179 0.043,-0.344 0.013,-0.537 -0.456,-2.862 -0.277,-5.916 -0.259,-8.804 0.014,-2.223 0.341,-4.49 -0.831,-6.494 -0.241,-0.41 -0.576,-0.713 -0.954,-0.923 1.2,-1.675 0.497,-4.391 -2.264,-4.624 -12.732,-1.074 -25.326,2.194 -37.999,-0.213 0.059,-0.241 0.154,-0.455 0.157,-0.736 0.087,-8.298 0.5,-16.252 -2.083,-24.249 -0.591,-1.831 -2.832,-3.02 -4.588,-1.867 C 116.68,43.12 108.662,55.461 97.185,63.783 96.86,58.855 96.495,53.921 96.042,48.969 97.071,47.872 97.322,45.91 96.167,44.688 91.557,39.805 57.525,18.204 38.78,11.97 c 21.947,-1.241 43.75,1.842 65.548,4.784 11.029,1.488 22.047,2.749 33.162,3.354 12.021,0.655 8.391,19.178 8.671,28.608 0.135,4.578 6.982,4.582 7.104,0 0.295,-11.111 -0.178,-22.204 -1.951,-33.181 -0.256,-1.586 -2.051,-2.716 -3.553,-2.705 -39.08,0.282 -78.947,-14.42 -117.613,-4.049 -0.857,0.23 -1.276,0.97 -1.339,1.739 -0.588,0.163 -1.104,0.391 -1.476,0.745 -0.119,-0.245 -0.184,-0.515 -0.319,-0.752 -0.097,-0.171 -0.318,-0.18 -0.456,-0.059 -5.608,4.902 -4.866,13.917 -5.333,20.923 -0.87,13.047 -0.198,26.221 0.409,39.264 1.266,27.177 3.827,54.287 4.006,81.509 0.012,1.823 1.326,2.767 2.731,2.914 -0.04,0.568 0.138,1.147 0.689,1.62 8.481,7.29 18.26,12.771 27.946,18.286 10.187,5.8 20.336,12.455 30.916,17.449 0.136,0.064 0.274,0.069 0.412,0.108 1.742,2.15 1.827,1.858 5.148,3.325 2.127,0.94 4.71,-0.134 4.735,-2.717 0.137,-14.095 0.375,-28.072 0.549,-42.004 0.076,0.004 0.127,0.038 0.207,0.038 16.928,-0.12 33.816,0.405 50.741,0.594 1.933,0.022 3.493,-1.615 3.516,-3.515 0.181,-15.29 2.511,-31.514 0.408,-46.675 -0.408,-2.944 -5.461,-2.919 -5.896,0 -2.085,13.967 -1.669,28.904 -1.565,43.147 -15.721,-0.076 -31.545,-0.843 -47.205,0.608 -0.054,0.005 -0.089,0.033 -0.141,0.041 0.214,-19.82 0.228,-39.56 -0.488,-59.396 8.954,8.693 20.15,16.127 30.267,23.033 2.069,1.412 4.649,-0.492 4.734,-2.717 0.23,-6.072 1.546,-12.012 1.922,-18.062 5.816,1.789 12.124,1.609 18.194,1.328 6.74,-0.313 16.014,0.269 22.329,-2.18 1.65,-0.643 2.222,-2.332 1.637,-3.643 z M 60.251,29.955 C 70.58,35.841 80.98,44.601 92.074,49.071 91.706,52.121 91.47,55.176 91.328,58.233 73.673,42.127 49.437,31.838 29.11,19.739 29.061,19.71 29.021,19.738 28.974,19.72 28.971,17.684 28.81,15.7 28.316,13.854 38.959,15.461 51.239,24.818 60.251,29.955 z m 30.93,33.019 c -0.026,1.568 -0.032,3.138 -0.02,4.708 C 69.495,54.997 47.703,43.56 28.476,26.967 c 0.212,-1.82 0.373,-3.652 0.452,-5.461 20.659,13.764 41.241,28.361 62.253,41.468 z M 27.615,35.947 c 0.046,-1.878 0.262,-3.899 0.508,-5.975 9.098,8.227 18.905,15.606 28.956,22.634 10.362,7.246 22.003,15.733 34.168,20.168 0.047,1.583 0.089,3.167 0.161,4.75 C 71.698,63.227 49.572,49.71 27.971,38.559 27.832,38.487 27.7,38.505 27.58,38.556 c 0.015,-0.87 0.013,-1.739 0.035,-2.609 z m -0.047,3.481 c 7.896,7.81 18.478,13.311 27.798,19.223 11.75,7.453 23.526,14.854 34.73,23.118 0.546,0.403 1.088,0.476 1.561,0.337 0.059,1.019 0.101,2.038 0.165,3.057 C 87.516,82.293 80.597,79.997 78.012,78.652 61.34,69.968 44.297,62.01 27.54,53.478 27.484,48.796 27.497,44.113 27.568,39.428 z m 0.043,17.257 c 15.006,8.567 30.748,15.818 45.985,23.957 2.908,1.553 5.777,3.179 8.71,4.694 2.218,1.146 4.425,2.307 6.624,3.49 4.076,2.193 1.895,0.34 3.099,-0.418 0.006,0.083 0.012,0.166 0.017,0.249 -0.629,0.699 -0.676,1.881 0.166,2.366 0.24,3.438 0.488,6.877 0.712,10.313 C 76.831,88.427 32.045,59.274 27.903,66.781 c -0.04,0.074 -0.045,0.149 -0.066,0.224 -0.119,-3.439 -0.164,-6.879 -0.226,-10.32 z m 0.249,10.933 c 0.108,0.245 0.318,0.447 0.604,0.543 24.422,8.22 42.792,26.559 64.792,38.914 0.085,1.615 0.181,3.23 0.243,4.843 0.021,0.562 0.011,1.126 0.028,1.688 C 72.28,99.39 51.038,84.5 28.067,73.214 27.985,71.349 27.926,69.483 27.86,67.618 z m 3.952,85.498 c -0.066,-0.039 -0.134,-0.038 -0.2,-0.07 0.082,-0.282 0.179,-0.555 0.177,-0.896 -0.007,-1.081 -0.038,-2.161 -0.052,-3.242 2.679,3.35 5.695,6.495 8.936,9.487 -2.947,-1.765 -5.897,-3.53 -8.861,-5.279 z m 60.175,34.85 c -0.754,-0.599 -1.534,-0.759 -2.25,-0.608 -0.256,-0.208 -0.545,-0.378 -0.804,-0.582 -16.768,-16.467 -40.617,-24.824 -57.263,-41.982 -0.02,-0.938 -0.073,-1.875 -0.097,-2.813 9.764,7.212 20.202,13.459 30.617,19.674 10.165,6.066 19.789,13.217 29.947,19.231 -0.059,2.36 -0.119,4.721 -0.15,7.08 z m 0.251,-11.034 c -16.446,-16.064 -41.44,-25.57 -60.752,-37.472 -0.089,-2.99 -0.236,-5.979 -0.362,-8.967 16.495,17.025 40.887,29.168 61.303,40.402 0.005,0.002 0.009,0.002 0.014,0.004 -0.071,2.011 -0.143,4.022 -0.203,6.033 z m 0.327,-9.558 C 85.178,160.703 75.507,156.216 66.862,151.523 54.137,144.615 41.82,137.485 31.013,127.778 c -0.067,-1.475 -0.166,-2.948 -0.239,-4.422 20.805,12.504 44.056,21.521 62.016,38.176 -0.074,1.947 -0.151,3.895 -0.225,5.842 z M 92.976,156.78 C 86.969,149.336 74.849,144.169 67.501,140.025 55.498,133.257 43.087,126.942 30.646,120.957 c -0.186,-3.646 -0.403,-7.291 -0.607,-10.936 8.176,9.039 18.804,15.757 29.101,22.087 9.703,5.966 22.522,15.022 34.106,17.244 -0.088,2.476 -0.173,4.952 -0.27,7.428 z m 0.413,-11.419 c -8.7,-5.819 -20.115,-9.501 -29.207,-14.452 -12.096,-6.586 -23.511,-14.193 -33.817,-23.346 -0.154,-0.137 -0.315,-0.2 -0.476,-0.234 -0.076,-1.33 -0.141,-2.66 -0.217,-3.99 20.501,13.393 41.188,29.286 63.813,38.477 -0.033,1.182 -0.058,2.363 -0.096,3.545 z m 0.191,-7.019 C 72.776,125.277 51.048,112.958 29.546,101.028 c -0.155,-2.713 -0.29,-5.427 -0.444,-8.14 21.635,13.052 41.252,32 64.343,41.828 0.058,0.025 0.119,0.023 0.178,0.039 -0.021,1.196 -0.014,2.391 -0.043,3.587 z m 0.082,-6.675 C 74.307,116.361 51.327,101.564 28.999,90.986 28.86,88.528 28.733,86.069 28.597,83.61 c 11.335,6.32 21.958,13.666 32.425,21.358 10.438,7.67 20.732,17.38 32.658,22.68 -0.009,1.34 0,2.68 -0.018,4.019 z M 66.678,104.745 C 54.416,96.083 41.949,87.839 28.466,81.222 28.369,79.434 28.259,77.646 28.173,75.857 28.17,75.784 28.168,75.711 28.164,75.638 c 22.442,13.385 43.537,28.567 65.442,42.792 0.025,1.777 0.088,3.553 0.09,5.331 -8.347,-7.024 -18.144,-12.748 -27.018,-19.016 z M 171.662,68.412 c -0.853,1.885 -0.583,3.942 -0.431,5.979 0.031,0.414 0.075,0.834 0.108,1.251 -1.354,-0.936 -2.895,-1.695 -4.218,-2.589 -1.719,-1.162 -3.327,-2.467 -4.895,-3.82 3.216,-0.194 6.386,-0.491 9.436,-0.821 z M 128.277,43.279 c 0.957,5.188 0.859,10.401 0.768,15.726 -3.087,-2.543 -6.175,-5.092 -9.268,-7.64 2.766,-2.87 5.547,-5.682 8.5,-8.086 z m -0.8,57.297 c -9.399,-6.755 -18.791,-14.604 -29.326,-19.088 -0.058,-1.376 -0.148,-2.756 -0.216,-4.133 4.909,3.601 9.745,7.298 14.686,10.858 4.544,3.274 9.716,7.295 15.283,8.765 -0.15,1.199 -0.297,2.397 -0.427,3.598 z m 0.799,-6.589 c -4.414,-3.103 -9.674,-5.401 -14.148,-8.352 -5.552,-3.662 -10.877,-7.654 -16.357,-11.422 -0.1,-1.833 -0.18,-3.663 -0.288,-5.498 0.864,-0.279 1.702,-0.611 2.526,-0.972 8.931,6.745 18.172,16.322 28.835,20.134 -0.122,2.045 -0.322,4.08 -0.568,6.11 z m 12.232,-9.79 c -4.57,-4.522 -11.557,-8.073 -16.417,-11.436 -4.765,-3.297 -11.258,-9.166 -17.312,-8.604 -0.137,0.013 -0.241,0.182 -0.121,0.291 4.652,4.24 10.565,7.448 15.741,11.206 3.009,2.185 6.318,5.306 9.783,8.028 -0.889,0.024 -1.78,0.361 -2.404,1.021 -4.731,-2.976 -9.693,-5.526 -14.317,-8.735 -4.418,-3.066 -8.72,-6.291 -13.127,-9.373 3.789,-2.069 7.19,-4.93 10.442,-8.069 9.329,10.434 22,17.543 33.554,25.382 -1.941,0.102 -3.882,0.2 -5.822,0.289 z m 11.31,-0.665 c -12.161,-9.551 -26,-16.106 -37.233,-26.809 1.296,-1.305 2.575,-2.638 3.852,-3.969 3.634,3.355 7.266,6.737 10.924,10.102 0.262,0.477 0.642,0.848 1.095,1.106 0.114,0.363 0.365,0.692 0.806,0.909 0.174,0.086 0.362,0.139 0.538,0.221 7.038,6.414 14.238,12.657 21.876,18.294 -0.62,0.045 -1.239,0.099 -1.858,0.146 z m 7.152,-0.738 c -6.457,-4.864 -12.807,-9.841 -19.075,-14.915 3.242,0.768 6.61,1.186 10.014,1.4 -0.473,0.463 -0.669,1.259 -0.089,1.774 2.823,2.507 5.813,4.74 8.898,6.916 1.779,1.255 3.593,2.712 5.47,4.046 -1.782,0.243 -3.55,0.526 -5.218,0.779 z m 10.887,-1.238 c -2.455,-2.201 -5.673,-3.802 -8.394,-5.522 -3.328,-2.103 -6.607,-4.29 -9.767,-6.638 2.469,0.098 4.947,0.059 7.416,-0.031 1.812,1.875 3.707,3.647 5.729,5.297 2.018,1.646 4.331,3.81 6.871,4.521 0.101,0.801 0.192,1.605 0.338,2.396 -0.711,-0.055 -1.455,-0.032 -2.193,-0.023 z"
   inkscape:connector-curvature="0" />

</g>
  </g>
</svg>
