<?xml version="1.0" encoding="UTF-8" standalone="no"?>
<!-- Created with Inkscape (http://www.inkscape.org/) -->

<svg
   xmlns:dc="http://purl.org/dc/elements/1.1/"
   xmlns:cc="http://creativecommons.org/ns#"
   xmlns:rdf="http://www.w3.org/1999/02/22-rdf-syntax-ns#"
   xmlns:svg="http://www.w3.org/2000/svg"
   xmlns="http://www.w3.org/2000/svg"
   xmlns:sodipodi="http://sodipodi.sourceforge.net/DTD/sodipodi-0.dtd"
   xmlns:inkscape="http://www.inkscape.org/namespaces/inkscape"
   width="744.09448819"
   height="1052.3622047"
   id="svg3067"
   version="1.1"
   inkscape:version="0.48.4 r9939"
   sodipodi:docname="oficialV1.6.svg"
   inkscape:export-filename="C:\wamp\www\proyecto2\webV1\images\icons\logoV1.png"
   inkscape:export-xdpi="120"
   inkscape:export-ydpi="120">
  <defs
     id="defs3069">
    <inkscape:path-effect
       effect="skeletal"
       id="path-effect3050"
       is_visible="true"
       pattern="M 0,5 C 0,2.24 2.24,0 5,0 7.76,0 10,2.24 10,5 10,7.76 7.76,10 5,10 2.24,10 0,7.76 0,5 z"
       copytype="single_stretched"
       prop_scale="1"
       scale_y_rel="false"
       spacing="0"
       normal_offset="0"
       tang_offset="0"
       prop_units="false"
       vertical_pattern="false"
       fuse_tolerance="0" />
  </defs>
  <sodipodi:namedview
     id="base"
     pagecolor="#ffffff"
     bordercolor="#666666"
     borderopacity="1.0"
     inkscape:pageopacity="0.0"
     inkscape:pageshadow="2"
     inkscape:zoom="2.73684"
     inkscape:cx="36.671173"
     inkscape:cy="978.13539"
     inkscape:document-units="px"
     inkscape:current-layer="layer1"
     showgrid="false"
     inkscape:window-width="1600"
     inkscape:window-height="837"
     inkscape:window-x="-8"
     inkscape:window-y="-8"
     inkscape:window-maximized="1" />
  <metadata
     id="metadata3072">
    <rdf:RDF>
      <cc:Work
         rdf:about="">
        <dc:format>image/svg+xml</dc:format>
        <dc:type
           rdf:resource="http://purl.org/dc/dcmitype/StillImage" />
        <dc:title></dc:title>
      </cc:Work>
    </rdf:RDF>
  </metadata>
  <g
     inkscape:label="Layer 1"
     inkscape:groupmode="layer"
     id="layer1">
    <path
       style="fill:#64c8f0;fill-opacity:1"
       d="M 0.26252943,95.999405 C 0.37784001,95.621239 0.68353771,92.105578 0.94185771,88.186825 1.2781111,83.085811 1.4088701,69.998952 1.4021654,42.117475 L 1.3928004,3.1731304 118.69072,2.9207814 c 64.51385,-0.1387921 118.0059,-0.3533191 118.87122,-0.476727 l 1.57331,-0.2243778 -26.71807,40.1518394 c -14.69494,22.083516 -26.83155,40.268145 -26.97024,40.410291 -0.13869,0.142149 -16.93992,1.253394 -37.33605,2.469436 C 67.802178,90.039345 13.446427,94.188002 1.2802795,96.45797 0.19831004,96.659842 0.07771611,96.605509 0.26252943,95.999405 l 0,0 z"
       id="path3052"
       inkscape:connector-curvature="0"
       inkscape:export-xdpi="120"
       inkscape:export-ydpi="120"
       inkscape:export-filename="C:\wamp\www\proyecto2\webV1\images\icons\logoV1.png" />
    <text
       xml:space="preserve"
       style="font-size:38.99999993px;font-style:normal;font-weight:600;line-height:125%;letter-spacing:0px;word-spacing:0px;fill:#000000;fill-opacity:1;stroke:none;font-family:Josefin Slab;-inkscape-font-specification:Josefin Slab Semi-Bold;font-stretch:normal;font-variant:normal;text-anchor:start;text-align:start;writing-mode:lr"
       x="39.754253"
       y="124.04773"
       id="text3822"
       sodipodi:linespacing="125%"
       inkscape:export-filename="C:\wamp\www\proyecto2\webV1\images\icons\text3822.png"
       inkscape:export-xdpi="120"
       inkscape:export-ydpi="120"
       transform="matrix(0.8660254,-0.50000001,0.50000001,0.8660254,0,0)"><tspan
         sodipodi:role="line"
         id="tspan3824"
         x="39.754253"
         y="124.04773">PetRecue</tspan></text>
    <g
       id="g6127"
       transform="matrix(1.4048511,0,0,1.5199237,0.0746619,-3.0203362)">
	<path
   id="path6129"
   d="M 30.926,4.655 C 30.336,4.661 29.78,4.933 29.399,5.406 L 4.342,36.451 6.629,38.297 30.957,8.15 56.242,38.317 58.493,36.43 32.466,5.378 C 32.077,4.912 31.511,4.653 30.926,4.655 z"
   inkscape:connector-curvature="0" />

	<path
   id="path6131"
   d="m 31.381,37.509 c 0.151,-0.051 0.342,-0.298 0.352,-0.455 0.221,-3.786 -2.905,-8.833 -4.031,-10.518 -0.906,0.361 -1.788,0.945 -2.602,1.835 0,0 -1.626,1.091 -2.203,6.393 3.041,3.938 6.82,3.294 8.484,2.745 z"
   inkscape:connector-curvature="0" />

	<path
   id="path6133"
   d="M 43.442,30.789 38.46,29.573 c 0,0 -0.142,-1.202 -1.555,-1.696 -1.03,-0.361 -4.578,-2.4 -8.069,-1.68 1.32,2.009 4.256,6.961 4.024,10.922 -0.035,0.623 -0.53,1.266 -1.125,1.463 -0.572,0.19 -1.599,0.454 -2.847,0.454 -1.808,0 -4.079,-0.556 -6.125,-2.694 -0.04,0.679 -0.063,1.414 -0.067,2.209 -0.023,4.101 -5.232,7.989 -5.232,7.989 l -0.694,1.438 c 1.416,3.066 3.636,5.687 6.392,7.589 0.125,-1.959 0.616,-3.493 1.185,-4.646 1.077,-2.19 2.588,-3.406 3.359,-3.92 0.166,-4.52 1.633,-5.841 2.857,-6.143 0.376,-0.093 0.772,-0.013 1.084,0.221 0.355,0.265 0.583,0.702 0.606,1.171 0.063,1.215 0.781,2.068 1.122,2.407 0.552,0.051 1.079,0.139 1.575,0.259 l 0.046,-0.426 0.379,-3.683 c 0.064,-0.621 0.623,-1.145 1.241,-1.234 2.348,-0.342 7.58,-1.733 7.92,-7.385 0.039,-0.623 -0.487,-1.25 -1.094,-1.399 z m -7.762,1.313 c -0.352,0 -0.637,-0.284 -0.637,-0.636 0,-0.352 0.285,-0.636 0.637,-0.636 0.352,0 0.636,0.284 0.636,0.636 -0.001,0.351 -0.285,0.636 -0.636,0.636 z"
   inkscape:connector-curvature="0" />

	<path
   id="path6135"
   d="m 38.461,48.931 c -0.188,-1.603 -2.45,-2.923 -5.373,-3.111 0,0 -1.552,-1.193 -1.656,-3.252 -0.017,-0.312 -0.25,-0.622 -0.553,-0.547 -0.781,0.192 -2.107,1.195 -2.173,5.774 0,0 -4.248,2.143 -4.555,8.321 2.723,1.636 5.896,2.596 9.283,2.652 L 33.396,57.883 C 33.382,57.571 33.608,57.229 33.9,57.12 l 3.618,-1.357 c 0,0 1.697,0.095 2.403,-1.179 0.357,-0.642 0.689,-1.091 0.933,-1.38 0.2,-0.238 0.197,-0.578 -0.027,-0.795 -0.739,-0.714 -2.225,-2.281 -2.366,-3.478 z m -2.146,1.551 c -0.351,0 -0.636,-0.284 -0.636,-0.636 0,-0.353 0.285,-0.637 0.636,-0.637 0.352,0 0.637,0.284 0.637,0.637 0,0.352 -0.285,0.636 -0.637,0.636 z"
   inkscape:connector-curvature="0" />

</g>
  </g>
</svg>
