<?xml version="1.0" encoding="UTF-8" standalone="no"?>
<!-- Created with Inkscape (http://www.inkscape.org/) -->

<svg
   xmlns:dc="http://purl.org/dc/elements/1.1/"
   xmlns:cc="http://creativecommons.org/ns#"
   xmlns:rdf="http://www.w3.org/1999/02/22-rdf-syntax-ns#"
   xmlns:svg="http://www.w3.org/2000/svg"
   xmlns="http://www.w3.org/2000/svg"
   xmlns:sodipodi="http://sodipodi.sourceforge.net/DTD/sodipodi-0.dtd"
   xmlns:inkscape="http://www.inkscape.org/namespaces/inkscape"
   width="744.09448819"
   height="1052.3622047"
   id="svg3067"
   version="1.1"
   inkscape:version="0.48.4 r9939"
   sodipodi:docname="oficialV1.3.svg"
   inkscape:export-filename="C:\wamp\www\proyecto2\webV1\images\icons\logoV1.png"
   inkscape:export-xdpi="120"
   inkscape:export-ydpi="120">
  <defs
     id="defs3069">
    <inkscape:path-effect
       effect="skeletal"
       id="path-effect3050"
       is_visible="true"
       pattern="M 0,5 C 0,2.24 2.24,0 5,0 7.76,0 10,2.24 10,5 10,7.76 7.76,10 5,10 2.24,10 0,7.76 0,5 z"
       copytype="single_stretched"
       prop_scale="1"
       scale_y_rel="false"
       spacing="0"
       normal_offset="0"
       tang_offset="0"
       prop_units="false"
       vertical_pattern="false"
       fuse_tolerance="0" />
  </defs>
  <sodipodi:namedview
     id="base"
     pagecolor="#ffffff"
     bordercolor="#666666"
     borderopacity="1.0"
     inkscape:pageopacity="0.0"
     inkscape:pageshadow="2"
     inkscape:zoom="2.73684"
     inkscape:cx="97.325066"
     inkscape:cy="951.15916"
     inkscape:document-units="px"
     inkscape:current-layer="layer1"
     showgrid="false"
     inkscape:window-width="1600"
     inkscape:window-height="837"
     inkscape:window-x="-8"
     inkscape:window-y="-8"
     inkscape:window-maximized="1" />
  <metadata
     id="metadata3072">
    <rdf:RDF>
      <cc:Work
         rdf:about="">
        <dc:format>image/svg+xml</dc:format>
        <dc:type
           rdf:resource="http://purl.org/dc/dcmitype/StillImage" />
        <dc:title></dc:title>
      </cc:Work>
    </rdf:RDF>
  </metadata>
  <g
     inkscape:label="Layer 1"
     inkscape:groupmode="layer"
     id="layer1">
    <g
       id="g3017"
       transform="matrix(0.25039612,0,0,0.25039612,3.4820914,1.8506321)"
       style="fill:#000000;fill-opacity:1">
      <circle
         inkscape:export-ydpi="119.87771"
         inkscape:export-xdpi="119.87771"
         inkscape:export-filename="D:\Repositorios\findme\icons\icon.png"
         transform="matrix(2.7342258,0,0,2.7342258,55.784645,61.108828)"
         id="circle2988"
         r="5.848"
         cy="9.6800003"
         cx="19.927"
         sodipodi:cx="19.927"
         sodipodi:cy="9.6800003"
         sodipodi:rx="5.848"
         sodipodi:ry="5.848"
         style="fill:#000000;fill-opacity:1"
         d="m 25.775,9.6800003 c 0,3.2297617 -2.618239,5.8479997 -5.848,5.8479997 -3.229761,0 -5.848,-2.618238 -5.848,-5.8479997 0,-3.2297612 2.618239,-5.848 5.848,-5.848 3.229761,0 5.848,2.6182388 5.848,5.848 z" />
      <path
         inkscape:export-ydpi="119.87771"
         inkscape:export-xdpi="119.87771"
         inkscape:export-filename="D:\Repositorios\findme\icons\icon.png"
         id="path2990"
         d="m 163.72368,138.88115 c 3.9947,-5.11301 11.34157,-6.21763 16.66784,-2.39791 5.45751,3.91813 6.71252,11.52476 2.79165,16.97953 -0.19414,0.27342 -0.40194,0.52771 -0.61794,0.77926 l 1.7253,1.23314 c 11.77631,-16.41903 8.2601,-39.25254 -7.67497,-51.94756 l 1.15931,-1.60774 c 0.6398,-0.90502 0.43201,-2.165504 -0.47029,-2.810774 -0.90229,-0.648017 -2.15731,-0.442945 -2.80258,0.462086 l -1.15932,1.607728 c -17.12718,-11.029871 -39.88414,-7.046107 -51.6632,9.37293 l 1.25774,0.89955 c 0.16954,-0.28162 0.34178,-0.56324 0.53867,-0.83121 3.91539,-5.45751 11.51655,-6.70978 16.97954,-2.79163 5.46023,3.91814 6.71525,11.52476 2.79437,16.98227 -0.19414,0.2707 -0.41014,0.52224 -0.61795,0.77379 l 0.50311,0.36364 c 0.17226,-0.28161 0.34451,-0.56324 0.53591,-0.83666 3.91814,-5.45752 11.51929,-6.70979 16.98227,-2.79165 0.20781,0.15039 0.3992,0.31443 0.60154,0.47576 l -26.7462,37.2757 c -2.11629,2.9475 -6.01804,3.84432 -9.18154,2.31862 4.98723,-2.34323 7.41797,-10.99978 1.40813,-15.60149 -7.47811,-5.71727 -13.92542,-12.34503 -19.53057,-19.68096 3.75135,-5.85124 4.115,-13.13522 -1.33157,-18.51071 -5.10481,-5.0419 -15.360883,-6.00437 -20.236008,0.10933 -16.197554,20.29889 -24.219772,36.20662 -20.29069,62.05873 2.668606,-1.81554 4.161493,-0.56599 4.957151,2.03425 0,15.71634 0,31.43267 0,47.15446 0,10.85762 16.829161,10.85762 16.829161,0 0,-15.28432 0,-30.56591 0,-45.8393 1.033537,-2.76429 2.794378,-4.52514 5.72,-3.84979 -1.473748,-9.70923 0.656214,-19.47862 4.877857,-28.31564 6.067239,7.09805 12.872739,13.54262 20.501219,19.37746 0.82848,0.63161 1.65148,1.06908 2.46082,1.3343 0.51129,0.58786 1.08275,1.13197 1.73895,1.60773 4.681,3.35763 11.22128,2.28034 14.5789,-2.39792 l 26.39622,-36.79174 c 2.89007,4.00017 3.14709,9.49871 0.31717,13.80238 z"
         inkscape:connector-curvature="0"
         style="fill:#000000;fill-opacity:1" />
      <path
         inkscape:export-ydpi="119.87771"
         inkscape:export-xdpi="119.87771"
         inkscape:export-filename="D:\Repositorios\findme\icons\icon.png"
         id="path2996"
         d="m 189.07543,103.21591 c 1.88113,1.08275 4.28452,0.43201 5.37001,-1.45188 1.08002,-1.886608 -0.74098,-6.605887 -0.74098,-6.605887 0,0 -5.00363,0.80386 -6.09186,2.687741 -1.07728,1.886615 -0.4238,4.290006 1.46283,5.370026 z"
         inkscape:connector-curvature="0"
         style="fill:#000000;fill-opacity:1" />
      <path
         inkscape:export-ydpi="119.87771"
         inkscape:export-xdpi="119.87771"
         inkscape:export-filename="D:\Repositorios\findme\icons\icon.png"
         id="path2998"
         d="m 146.17542,87.532385 c 1.88114,1.082753 4.2818,0.432008 5.36729,-1.454608 1.08274,-1.881147 -0.74645,-6.603156 -0.74645,-6.603156 0,0 -5.00091,0.806596 -6.08639,2.687745 -1.07454,1.886616 -0.4238,4.295469 1.46555,5.370019 z"
         inkscape:connector-curvature="0"
         style="fill:#000000;fill-opacity:1" />
      <path
         inkscape:export-ydpi="119.87771"
         inkscape:export-xdpi="119.87771"
         inkscape:export-filename="D:\Repositorios\findme\icons\icon.png"
         id="path3000"
         d="m 194.28492,119.43965 c -1.07728,1.88388 -0.42653,4.29001 1.46007,5.37277 1.88388,1.08276 4.28727,0.432 5.37276,-1.45461 1.08002,-1.88662 -0.75191,-6.6059 -0.75191,-6.6059 0,0 -4.99817,0.8066 -6.08092,2.68774 z"
         inkscape:connector-curvature="0"
         style="fill:#000000;fill-opacity:1" />
      <path
         inkscape:export-ydpi="119.87771"
         inkscape:export-xdpi="119.87771"
         inkscape:export-filename="D:\Repositorios\findme\icons\icon.png"
         id="path3008"
         d="m 198.84481,92.96253 c 1.88114,1.082754 4.2818,0.432008 5.36729,-1.454607 1.08275,-1.883882 -0.74644,-6.605889 -0.74644,-6.605889 0,0 -4.99817,0.803861 -6.08093,2.685009 -1.08001,1.886616 -0.42653,4.295469 1.46008,5.375487 z"
         inkscape:connector-curvature="0"
         style="fill:#000000;fill-opacity:1" />
      <path
         inkscape:export-ydpi="119.87771"
         inkscape:export-xdpi="119.87771"
         inkscape:export-filename="D:\Repositorios\findme\icons\icon.png"
         id="path3010"
         d="m 179.49117,70.550492 c 1.88114,1.082753 4.28999,0.432008 5.37002,-1.454609 1.08276,-1.886615 -0.74645,-6.605889 -0.74645,-6.605889 0,0 -5.00089,0.803862 -6.08639,2.68501 -1.07728,1.886614 -0.42381,4.292734 1.46282,5.375488 z"
         inkscape:connector-curvature="0"
         style="fill:#000000;fill-opacity:1" />
      <g
         inkscape:export-ydpi="119.87771"
         inkscape:export-xdpi="119.87771"
         inkscape:export-filename="D:\Repositorios\findme\icons\icon.png"
         style="fill:#000000;fill-opacity:1"
         transform="matrix(3.7780193,0,0,3.7780193,-28.010124,-10.463338)"
         id="g3042">
        <path
           style="fill:#000000;fill-opacity:1"
           inkscape:connector-curvature="0"
           d="m 68.582168,17.159 c -13.84,-13.842 -36.361,-13.842 -50.203,0 -13.8409999,13.841 -13.8409999,36.362 0,50.202 13.367,13.367 34.826,13.822 48.748,1.373 l 2.814,2.814 c -0.701,1.795 -0.334,3.908 1.115,5.357 l 14.85,14.851 c 1.953,1.953 5.119,1.952 7.071,0 1.953,-1.952 1.953,-5.118 0,-7.071 l -14.85,-14.848 c -1.449,-1.449 -3.564,-1.816 -5.357,-1.115 l -2.815,-2.816 c 12.452,-13.922 11.995,-35.381 -1.373,-48.747 z m -45.96,45.961 c -11.502,-11.502 -11.502,-30.216 0,-41.718 11.502,-11.503 30.217,-11.502 41.719,0 11.502,11.502 11.502,30.217 0,41.719 -11.502,11.502 -30.217,11.501 -41.719,-0.001 z"
           id="path3032" />
      </g>
      <path
         inkscape:export-ydpi="119.87771"
         inkscape:export-xdpi="119.87771"
         inkscape:export-filename="D:\Repositorios\findme\icons\icon.png"
         style="fill:#000000;fill-opacity:1"
         inkscape:connector-curvature="0"
         d="m 184.95416,224.74457 c 0.10181,0.35848 -0.0702,0.64648 -0.39361,0.64648 H 182.213 c -0.32333,0 -0.58983,-0.32838 -0.40944,-0.64171 0.17338,-0.30166 0.51486,-0.61773 1.1902,-0.72649 0.68353,-2.85062 -0.73509,-3.44308 -2.97725,-4.90294 0.0487,1.31142 -1.22005,1.71025 -2.44069,1.99551 -1.22065,0.28528 -1.89366,1.3128 -2.05003,2.39436 -0.2138,1.47489 -1.31789,1.14039 -1.85498,1.14039 -0.53712,0 -0.73977,-2.65498 0,-3.24947 0.39069,-0.3133 3.31928,-0.34205 4.10006,-2.90742 0.78077,-2.56533 -1.51292,-4.10456 -2.24508,-4.16134 -0.73217,-0.0567 -5.51576,4.16134 -9.03011,1.71024 -0.9811,-0.55479 -0.97639,2.82189 -0.56111,3.53471 0.41468,0.71284 0.13046,1.71025 -0.26417,2.56537 -0.39479,0.85512 0.0192,3.47725 -0.24833,3.677 -0.20157,0.1499 -2.37453,0.0745 -3.44172,0.028 -0.32332,-0.0149 -0.53537,-0.33726 -0.36784,-0.66015 0.24307,-0.46862 0.73742,-0.9933 1.71089,-0.79287 1.31788,-0.42823 0.53713,-4.47603 0.43929,-5.27438 -0.0978,-0.79833 -1.22005,-3.76253 -1.22005,-4.44662 0,-0.68409 -0.39066,1.28609 -4.49075,-2.29309 -1.80579,-0.84212 -2.05004,0.63963 -2.53792,0.98168 -0.38424,0.26884 -2.03657,0.57326 -2.77167,0.16333 -0.29169,-0.1627 -0.13068,-0.67039 0.11766,-0.91258 1.48832,-1.4489 2.25447,-3.71872 3.14182,-2.78562 0.9764,1.02613 4.73443,1.93805 6.1501,0.4563 0.78078,-0.79837 -2.24506,-8.03813 -2.68437,-8.26594 -0.43929,-0.22779 -6.63801,-0.11423 -7.0773,-3.16394 -0.43929,-3.0497 -0.73212,-4.30432 1.31788,-3.90481 3.80722,0.39883 3.80722,-3.47724 8.44437,-2.50859 0,0 1.80579,-1.25394 2.68438,-0.56983 0.64371,0.50144 1.73372,2.34985 2.26967,3.30212 0.17807,0.31536 0.089,0.72514 -0.19259,0.91191 l -2.07699,1.37297 c 0,0 -0.68353,2.73637 0.39065,4.38983 1.07423,1.65346 4.97868,5.41601 11.81231,4.10459 0,0 2.34289,-0.2278 3.41653,0.51306 0,0 3.56295,-0.79832 4.3443,-7.61055 0,0 2.05003,5.40159 -2.88,9.44872 0,0 1.09824,1.61789 0.70754,4.69631 -0.39067,3.07843 0.62262,4.71411 1.54984,5.34071 0.89322,0.60407 -0.8001,0.87428 0.77608,6.40453 z"
         id="path3047" />
      <path
         inkscape:export-ydpi="119.87771"
         inkscape:export-xdpi="119.87771"
         inkscape:export-filename="D:\Repositorios\findme\icons\icon.png"
         style="fill:#000000;fill-opacity:1"
         inkscape:connector-curvature="0"
         d="m 103.56451,190.4793 c -0.5862,-0.41546 -0.72644,0.38933 -0.74995,-0.0452 -0.0243,-0.44246 -0.33359,-0.56614 -0.83443,-0.56614 h -0.12719 c -0.0225,0 -0.0402,0.01 -0.0636,0.0121 -0.83181,-0.12458 -0.5679,1.0034 -0.9703,0.92065 -0.40154,-0.0826 -0.59576,0.33533 -0.44334,0.58533 0.15251,0.24908 0.60623,0.92323 0.36061,1.05475 -0.69245,0.0828 -0.60449,0.43028 -0.60449,0.43028 0.11595,0.30485 1.56084,1.0809 1.56084,1.0809 0.0418,0.66547 2.86819,7.56638 3.45089,8.81366 0.58269,1.24726 2.78546,2.74363 3.4509,3.11818 0.66547,0.37453 4.73912,6.36088 5.23818,7.19184 0.4991,0.8318 0.20818,1.20546 0.20818,1.20546 -0.37451,0.0828 -1.33001,0.91454 -1.33001,1.78729 0,0.87274 0.70639,3.62684 0.70639,3.62684 -1.29955,0.0932 -1.84999,0.66544 -1.12271,1.64183 0.72726,0.97725 2.24453,0.15573 2.32817,0.21863 0.0826,0.0627 1.84998,1.83955 1.84998,1.83955 -3.26363,-0.71685 -3.63728,-0.13504 -4.06407,0.11414 -0.4259,0.24908 -1.2159,1.25771 -0.15573,1.54862 1.06001,0.29091 1.81863,-0.021 1.81863,-0.021 3.41954,0.8832 7.92959,0.92501 8.26231,0.30139 0.33272,-0.62365 5.27303,0.47118 5.27303,0.47118 20.22982,3.7697 21.3386,-0.27698 21.7262,-0.83094 0.3876,-0.55394 0.55396,-3.21484 -2.38306,-0.66543 -2.93788,2.54942 -16.4366,-0.432 -16.81987,-0.48949 -1.28646,-0.1925 -4.80442,-0.24476 -4.29837,-3.05809 1.05304,-7.81547 -3.21486,-13.82973 -5.15457,-14.93852 -2.75409,-1.57389 -3.35335,-6.67881 -2.38394,-8.0097 0.97029,-1.33001 -0.30483,-1.38575 0.44334,-3.29845 0.7482,-1.91273 0,-2.07822 0,-2.07822 0,0 -1.05391,-0.19432 -1.70541,1.05305 -0.66542,1.02517 -1.20721,0.45726 -3.17479,0.42938 -1.96759,-0.0279 -1.7899,0.79 -2.74626,1.08092 -0.95635,0.29091 -0.54524,0.84488 -0.68463,0.92848 -0.13844,0.0844 -0.30134,0.81875 -0.30134,0.81875 v 0.0557 c 0,0.44335 0.89713,1.19152 0.8832,2.6609 -0.0418,1.0391 -1.18108,1.02516 -2.67745,0.9703 -1.49639,-0.0559 -3.28457,-4.26791 -3.88031,-5.43244 -0.59577,-1.16367 -0.0141,-1.06697 0.12457,-1.66273 0.13845,-0.59577 -0.88667,-0.38761 -0.84484,-0.98424 0.0418,-0.59574 0.67936,-0.95635 0.12457,-1.60699 -0.0437,-0.0496 -0.0836,-0.0907 -0.12357,-0.12901 l -0.16558,-0.14287 z"
         id="path3057" />
      <path
         inkscape:export-ydpi="119.87771"
         inkscape:export-xdpi="119.87771"
         inkscape:export-filename="D:\Repositorios\findme\icons\icon.png"
         id="path3010-2"
         d="m 193.94414,76.65944 c 1.88113,1.082753 4.28999,0.432008 5.37,-1.454609 1.08275,-1.886614 -0.74643,-6.605889 -0.74643,-6.605889 0,0 -5.00091,0.803862 -6.0864,2.68501 -1.07728,1.886615 -0.4238,4.292734 1.46283,5.375488 z"
         inkscape:connector-curvature="0"
         style="fill:#000000;fill-opacity:1" />
      <path
         inkscape:export-ydpi="119.87771"
         inkscape:export-xdpi="119.87771"
         inkscape:export-filename="D:\Repositorios\findme\icons\icon.png"
         id="path2996-3"
         d="m 132.39095,69.847549 c 1.88115,1.082754 4.28453,0.432007 5.37002,-1.451874 C 138.841,66.50906 137.02,61.789787 137.02,61.789787 c 0,0 -5.00363,0.803861 -6.09185,2.687743 -1.07729,1.886615 -0.42381,4.29 1.4628,5.370019 z"
         inkscape:connector-curvature="0"
         style="fill:#000000;fill-opacity:1" />
      <path
         inkscape:export-ydpi="119.87771"
         inkscape:export-xdpi="119.87771"
         inkscape:export-filename="D:\Repositorios\findme\icons\icon.png"
         id="path3006-0"
         d="m 168.33779,56.229936 c 1.08003,-1.886615 -0.74643,-6.605889 -0.74643,-6.605889 0,0 -4.99817,0.806598 -6.08366,2.687744 -1.08002,1.886616 -0.4238,4.290001 1.46008,5.372754 1.88934,1.082753 4.29273,0.432008 5.37001,-1.454609 z"
         inkscape:connector-curvature="0"
         style="fill:#000000;fill-opacity:1" />
      <path
         inkscape:export-ydpi="119.87771"
         inkscape:export-xdpi="119.87771"
         inkscape:export-filename="D:\Repositorios\findme\icons\icon.png"
         id="path3008-5"
         d="m 157.65942,72.76839 c 1.88116,1.082753 4.2818,0.432008 5.36729,-1.454608 1.08275,-1.883881 -0.74644,-6.605888 -0.74644,-6.605888 0,0 -4.99816,0.803861 -6.08092,2.685009 -1.08002,1.886615 -0.42654,4.295469 1.46007,5.375487 z"
         inkscape:connector-curvature="0"
         style="fill:#000000;fill-opacity:1" />
      <path
         inkscape:export-ydpi="119.87771"
         inkscape:export-xdpi="119.87771"
         inkscape:export-filename="D:\Repositorios\findme\icons\icon.png"
         id="path3010-6"
         d="m 123.34884,55.301441 c 1.88116,1.082753 4.29001,0.432007 5.37002,-1.454607 1.08276,-1.886617 -0.74644,-6.60589 -0.74644,-6.60589 0,0 -5.0009,0.803862 -6.08638,2.68501 -1.07729,1.886615 -0.42381,4.292734 1.4628,5.375487 z"
         inkscape:connector-curvature="0"
         style="fill:#000000;fill-opacity:1" />
      <path
         inkscape:export-ydpi="119.87771"
         inkscape:export-xdpi="119.87771"
         inkscape:export-filename="D:\Repositorios\findme\icons\icon.png"
         id="path3008-6-1"
         d="m 145.0342,55.154264 c 1.66613,0.958988 3.79237,0.382626 4.75378,-1.288337 0.95899,-1.668542 -0.66112,-5.850794 -0.66112,-5.850794 0,0 -4.42685,0.711975 -5.38584,2.378095 -0.95655,1.670964 -0.37778,3.80447 1.29318,4.761036 z"
         inkscape:connector-curvature="0"
         style="fill:#000000;fill-opacity:1" />
      <path
         inkscape:export-ydpi="119.87771"
         inkscape:export-xdpi="119.87771"
         inkscape:export-filename="D:\Repositorios\findme\icons\icon.png"
         id="path3010-2-5"
         d="m 200.28881,111.02366 c 1.66612,0.95899 3.79962,0.38263 4.75619,-1.28834 0.95899,-1.67096 -0.66112,-5.85079 -0.66112,-5.85079 0,0 -4.42927,0.71197 -5.39067,2.3781 -0.95415,1.67096 -0.37536,3.80204 1.2956,4.76103 z"
         inkscape:connector-curvature="0"
         style="fill:#000000;fill-opacity:1" />
      <path
         inkscape:export-ydpi="119.87771"
         inkscape:export-xdpi="119.87771"
         inkscape:export-filename="D:\Repositorios\findme\icons\icon.png"
         id="path3010-2-59"
         d="m 182.50925,84.413365 c 1.88115,1.082754 4.29,0.432007 5.37002,-1.454607 1.08275,-1.886617 -0.74644,-6.605891 -0.74644,-6.605891 0,0 -5.0009,0.803864 -6.08639,2.68501 -1.07728,1.886616 -0.4238,4.292734 1.46281,5.375488 z"
         inkscape:connector-curvature="0"
         style="fill:#000000;fill-opacity:1" />
      <path
         inkscape:export-ydpi="119.87771"
         inkscape:export-xdpi="119.87771"
         inkscape:export-filename="D:\Repositorios\findme\icons\icon.png"
         id="path3010-69"
         d="m 168.19769,87.848927 c 1.88115,1.082753 4.29001,0.432007 5.37001,-1.454609 1.08277,-1.886615 -0.74642,-6.605889 -0.74642,-6.605889 0,0 -5.00091,0.803862 -6.0864,2.685009 -1.07728,1.886617 -0.4238,4.292736 1.46281,5.375489 z"
         inkscape:connector-curvature="0"
         style="fill:#000000;fill-opacity:1" />
    </g>
    <text
       xml:space="preserve"
       style="font-size:38.99999993px;font-style:normal;font-weight:600;line-height:125%;letter-spacing:0px;word-spacing:0px;fill:#000000;fill-opacity:1;stroke:none;font-family:Josefin Slab;-inkscape-font-specification:Josefin Slab Semi-Bold;font-stretch:normal;font-variant:normal;text-anchor:start;text-align:start;writing-mode:lr"
       x="39.754253"
       y="124.04773"
       id="text3822"
       sodipodi:linespacing="125%"
       transform="matrix(0.8660254,-0.50000001,0.50000001,0.8660254,0,0)"
       inkscape:export-filename="C:\wamp\www\proyecto2\webV1\images\icons\text3822.png"
       inkscape:export-xdpi="120"
       inkscape:export-ydpi="120"><tspan
         sodipodi:role="line"
         id="tspan3824"
         x="39.754253"
         y="124.04773">PetRecue</tspan></text>
  </g>
</svg>
