<?xml version="1.0" encoding="UTF-8" standalone="no"?>
<!-- Generator: Adobe Illustrator 16.0.0, SVG Export Plug-In . SVG Version: 6.00 Build 0)  -->

<svg
   xmlns:dc="http://purl.org/dc/elements/1.1/"
   xmlns:cc="http://creativecommons.org/ns#"
   xmlns:rdf="http://www.w3.org/1999/02/22-rdf-syntax-ns#"
   xmlns:svg="http://www.w3.org/2000/svg"
   xmlns="http://www.w3.org/2000/svg"
   xmlns:sodipodi="http://sodipodi.sourceforge.net/DTD/sodipodi-0.dtd"
   xmlns:inkscape="http://www.inkscape.org/namespaces/inkscape"
   version="1.1"
   id="Capa_1"
   x="0px"
   y="0px"
   width="32.775px"
   height="52.021px"
   viewBox="0 0 32.775 52.021"
   enable-background="new 0 0 32.775 52.021"
   xml:space="preserve"
   inkscape:version="0.48.5 r10040"
   sodipodi:docname="direccion.svg"><metadata
   id="metadata9"><rdf:RDF><cc:Work
       rdf:about=""><dc:format>image/svg+xml</dc:format><dc:type
         rdf:resource="http://purl.org/dc/dcmitype/StillImage" /></cc:Work></rdf:RDF></metadata><defs
   id="defs7" /><sodipodi:namedview
   pagecolor="#ffffff"
   bordercolor="#666666"
   borderopacity="1"
   objecttolerance="10"
   gridtolerance="10"
   guidetolerance="10"
   inkscape:pageopacity="0"
   inkscape:pageshadow="2"
   inkscape:window-width="640"
   inkscape:window-height="480"
   id="namedview5"
   showgrid="false"
   inkscape:zoom="4.5366294"
   inkscape:cx="16.387501"
   inkscape:cy="26.0105"
   inkscape:window-x="620"
   inkscape:window-y="110"
   inkscape:window-maximized="0"
   inkscape:current-layer="Capa_1" />
<path
   d="M32.777,16.842C32.776,7.791,25.441,0.454,16.391,0.454C7.338,0.454,0,7.791,0,16.842c0,7.812,12.208,28.682,15.553,34.251  c0.176,0.295,0.494,0.475,0.837,0.475c0.343,0,0.662-0.18,0.837-0.474C20.571,45.526,32.777,24.654,32.777,16.842z M16.391,29.523  c-6.991,0-12.683-5.689-12.683-12.681c0-6.992,5.69-12.681,12.683-12.681S29.07,9.85,29.07,16.842  C29.07,23.833,23.383,29.523,16.391,29.523z"
   id="path3"
   style="fill:#f9f9f9" />
</svg>