<?xml version="1.0" encoding="UTF-8" standalone="no"?>
<!-- Generator: Adobe Illustrator 16.0.4, SVG Export Plug-In . SVG Version: 6.00 Build 0)  -->

<svg
   xmlns:dc="http://purl.org/dc/elements/1.1/"
   xmlns:cc="http://creativecommons.org/ns#"
   xmlns:rdf="http://www.w3.org/1999/02/22-rdf-syntax-ns#"
   xmlns:svg="http://www.w3.org/2000/svg"
   xmlns="http://www.w3.org/2000/svg"
   xmlns:sodipodi="http://sodipodi.sourceforge.net/DTD/sodipodi-0.dtd"
   xmlns:inkscape="http://www.inkscape.org/namespaces/inkscape"
   version="1.1"
   id="Capa_1"
   x="0px"
   y="0px"
   width="30.29px"
   height="30.29px"
   viewBox="0 0 30.29 30.29"
   enable-background="new 0 0 30.29 30.29"
   xml:space="preserve"
   inkscape:version="0.48.5 r10040"
   sodipodi:docname="injection.svg"><metadata
   id="metadata9"><rdf:RDF><cc:Work
       rdf:about=""><dc:format>image/svg+xml</dc:format><dc:type
         rdf:resource="http://purl.org/dc/dcmitype/StillImage" /></cc:Work></rdf:RDF></metadata><defs
   id="defs7" /><sodipodi:namedview
   pagecolor="#ffffff"
   bordercolor="#666666"
   borderopacity="1"
   objecttolerance="10"
   gridtolerance="10"
   guidetolerance="10"
   inkscape:pageopacity="0"
   inkscape:pageshadow="2"
   inkscape:window-width="1366"
   inkscape:window-height="705"
   id="namedview5"
   showgrid="false"
   inkscape:zoom="7.79135"
   inkscape:cx="-6.096505"
   inkscape:cy="16.333471"
   inkscape:window-x="-8"
   inkscape:window-y="-8"
   inkscape:window-maximized="1"
   inkscape:current-layer="Capa_1" />
<path
   fill="#2D2D2D"
   d="M4.468,20.44l5.38,5.38l12.238-12.24l-5.381-5.379L4.468,20.44z M10.019,24.567l-4.297-4.3L16.624,9.368  l4.295,4.299L10.019,24.567z M16.985,4.986l8.316,8.325l-0.984,0.983L16,5.969L16.985,4.986z M30.29,7.336l-0.811,0.811l-1.46-1.461  l-4.065,4.065L19.54,6.333l4.063-4.062l-1.46-1.459L22.954,0L30.29,7.336z M5.547,22.95l1.792,1.791L0.718,30.29L0,29.57  L5.547,22.95z M8.374,17.639l2.691,2.69l-1.006,1.007l-2.691-2.689L8.374,17.639z M10.856,15.158l2.692,2.69l-1.007,1.008  l-2.692-2.69L10.856,15.158z M13.258,12.757l2.691,2.688l-1.008,1.009l-2.691-2.687L13.258,12.757z M15.385,10.63l2.689,2.69  l-1.006,1.007l-2.69-2.69L15.385,10.63z"
   id="path3"
   style="fill:#f9f9f9;stroke:#000000;stroke-opacity:1;fill-rule:evenodd;stroke-width:0.19999999;stroke-miterlimit:4;stroke-dasharray:none" />
</svg>