<?xml version="1.0" encoding="UTF-8" standalone="no"?>
<!-- Generator: Adobe Illustrator 17.1.0, SVG Export Plug-In . SVG Version: 6.00 Build 0)  -->

<svg
   xmlns:dc="http://purl.org/dc/elements/1.1/"
   xmlns:cc="http://creativecommons.org/ns#"
   xmlns:rdf="http://www.w3.org/1999/02/22-rdf-syntax-ns#"
   xmlns:svg="http://www.w3.org/2000/svg"
   xmlns="http://www.w3.org/2000/svg"
   xmlns:sodipodi="http://sodipodi.sourceforge.net/DTD/sodipodi-0.dtd"
   xmlns:inkscape="http://www.inkscape.org/namespaces/inkscape"
   version="1.1"
   id="Capa_1"
   x="0px"
   y="0px"
   viewBox="0 0 200 200"
   style="enable-background:new 0 0 200 200;"
   xml:space="preserve"
   inkscape:version="0.48.5 r10040"
   width="100%"
   height="100%"
   sodipodi:docname="masculino.svg"><metadata
   id="metadata13"><rdf:RDF><cc:Work
       rdf:about=""><dc:format>image/svg+xml</dc:format><dc:type
         rdf:resource="http://purl.org/dc/dcmitype/StillImage" /><dc:title /></cc:Work></rdf:RDF></metadata><defs
   id="defs11" /><sodipodi:namedview
   pagecolor="#ffffff"
   bordercolor="#666666"
   borderopacity="1"
   objecttolerance="10"
   gridtolerance="10"
   guidetolerance="10"
   inkscape:pageopacity="0"
   inkscape:pageshadow="2"
   inkscape:window-width="640"
   inkscape:window-height="480"
   id="namedview9"
   showgrid="false"
   inkscape:zoom="1.18"
   inkscape:cx="100"
   inkscape:cy="100"
   inkscape:window-x="0"
   inkscape:window-y="0"
   inkscape:window-maximized="0"
   inkscape:current-layer="Capa_1" />
<g
   id="g3"
   style="fill:#b3b3b3"
   transform="matrix(1.12714,0,-0.02056666,1.0638637,-10.933236,-6.3863386)">
	<path
   style="fill:#b3b3b3"
   d="m 100,100 c 22.44,0 40.639,-20.796 40.639,-46.444 C 140.639,27.908 122.44,7.111 100,7.111 77.56,7.111 59.361,27.907 59.361,53.556 59.361,79.205 77.56,100 100,100 z M 77.764,40.901 c 2.79,7.291 11.634,12.655 22.236,12.655 10.602,0 29.028,-1.247 29.028,5.806 0,16.033 -12.994,29.028 -29.028,29.028 -16.022,0 -29.028,-12.995 -29.028,-29.028 0,-7.054 2.62,-13.432 6.792,-18.461 z"
   id="path5"
   inkscape:connector-curvature="0" />
	<path
   style="fill:#b3b3b3"
   d="m 169.667,146.444 c 0,-19.242 -15.591,-34.833 -34.833,-34.833 h -26.638 l 2.609,2.423 c 1.367,1.27 1.367,3.329 0,4.599 l -5.564,5.168 c -1.367,1.27 -1.947,3.578 -1.295,5.155 l 10.725,25.938 c 0.652,1.577 0.374,4.043 -0.621,5.508 l -12.247,18.029 c -0.995,1.465 -2.608,1.465 -3.603,0 L 85.953,160.402 c -0.995,-1.465 -1.273,-3.931 -0.621,-5.508 l 10.725,-25.938 c 0.652,-1.577 0.072,-3.885 -1.295,-5.155 l -5.564,-5.168 c -1.367,-1.27 -1.367,-3.329 0,-4.599 l 2.609,-2.423 h -26.64 c -19.242,0 -34.833,15.591 -34.833,34.833 v 34.833 c 0,6.418 5.193,11.611 11.611,11.611 h 116.111 c 6.418,0 11.611,-5.193 11.611,-11.611 v -34.833 z"
   id="path7"
   inkscape:connector-curvature="0" />
</g>
</svg>