<?xml version="1.0" encoding="utf-8"?>
<!-- Generator: Adobe Illustrator 17.0.0, SVG Export Plug-In . SVG Version: 6.00 Build 0)  -->
<!DOCTYPE svg PUBLIC "-//W3C//DTD SVG 1.1//EN" "http://www.w3.org/Graphics/SVG/1.1/DTD/svg11.dtd">
<svg version="1.1" id="Capa_1" xmlns="http://www.w3.org/2000/svg" xmlns:xlink="http://www.w3.org/1999/xlink" x="0px" y="0px"
	 width="200px" height="200px" viewBox="0 0 200 200" enable-background="new 0 0 200 200" xml:space="preserve">
<g>
	<path d="M168.939,104.391c-8.262-9.381-18.898-17.121-27.656-26.207c-10.811-11.216-20.898-23.139-30.992-34.995
		c-1.715-2.015-4.506-1.387-6.299,0c-16.07,12.429-32.124,24.94-47.156,38.623c-6.564,5.975-26.104,20.852-23.486,31.465
		c0.019,0.076,0.07,0.137,0.103,0.206c-2.33,8.029,1.59,17.692,3.185,25.652c1.053,5.255,2.119,10.503,3.166,15.754
		c-1.004-0.652-2.634,0.444-1.781,1.56c0.888,1.162,1.824,2.285,2.763,3.405c1.649,8.483,3.178,16.988,4.321,25.571
		c0.314,2.362,1.732,4.299,4.329,4.329c6.233,0.072,14.607,1.49,22.492,1.654c0.834,0.521,1.678,0.438,2.285,0.007
		c5.249-0.07,10.162-0.824,13.919-3.073c1.61-0.965,1.978-2.961,1.262-4.451c3.519-18.553,2.976-37.528,2.806-56.349l18.593,0.015
		c2.12,17.23,1.143,34.651,2.417,51.949c0.123,1.666,1.001,2.825,2.149,3.483c0.254,1.396,1.111,2.708,2.588,3.217
		c11.586,4.002,24.727,0.791,36.543-0.748c1.997-0.261,3.753-1.176,4.313-3.284c6.023-22.669,9.443-49.16,10.167-72.635
		C170.024,108.108,170.198,105.821,168.939,104.391z M52.055,98.307c5.239,6.19,10.724,12.109,16.436,17.869
		c4.605,4.642,9.501,10.254,15.237,13.673c0.03,2.318,0.052,4.64,0.085,6.956c-12.215-10.989-26.492-19.396-37.455-31.746
		C48.339,102.789,50.239,100.441,52.055,98.307z M53.125,181.061c-0.46-3.172-0.965-6.337-1.504-9.495
		c0.464,0.472,0.926,0.947,1.39,1.419c2.485,2.525,4.968,5.195,7.491,7.834C57.983,180.918,55.506,181.015,53.125,181.061z
		 M67.011,180.609c-3.186-2.908-6.516-5.694-9.577-8.547c-2.358-2.197-4.65-4.457-6.945-6.715
		c-0.987-5.304-2.094-10.585-3.256-15.856c2.672,3.444,5.473,6.808,8.398,10.151c5.932,6.78,12.276,14.764,19.449,20.979
		C72.426,180.532,69.72,180.544,67.011,180.609z M83.605,180.704c-12.105-12.666-25.931-23.897-37.674-37.003
		c-0.158-0.676-0.295-1.356-0.456-2.031c-1.204-5.065-2.084-11.398-3.78-17.219c5.602,6.671,11.55,13.067,17.386,19.517
		c6.909,7.636,14.416,18.762,23.318,24.05c0.525,0.312,1.07,0.335,1.565,0.195C83.898,172.372,83.806,176.533,83.605,180.704z
		 M63.843,143.626c-8.605-8.416-16.753-17.214-24.847-26.105c-0.728-1.407-1.522-2.751-2.483-3.919
		c2.645-1.26,5.236-3.553,7.733-6.196c10.464,14.149,26.523,23.129,39.022,35.31c0.198,0.193,0.412,0.294,0.624,0.402
		c0.093,6.711,0.165,13.415,0.126,20.124C78.877,155.924,70.082,149.727,63.843,143.626z M83.647,123.28
		c0.001,0.193,0.006,0.385,0.007,0.578c-4.061-3.544-8.653-6.679-12.621-10.224c-6.066-5.418-11.652-11.433-17.175-17.401
		c0.744-0.822,1.471-1.585,2.176-2.249c0.572-0.539,1.171-1.049,1.747-1.582c5.668,6.788,12.08,12.926,18.588,18.901
		c2.686,2.467,5.765,5.802,9.06,8.623C84.377,120.706,83.639,121.894,83.647,123.28z M91.417,119.018
		c-0.874-0.602-1.765-1.184-2.632-1.797c-4.076-2.888-7.784-6.441-11.487-9.783c-6.009-5.422-11.756-11.15-17.258-17.085
		c2.169-1.976,4.382-3.905,6.596-5.833c5.535,7.381,11.931,14.195,18.481,20.649c4.021,3.963,9.301,10.008,14.903,13.842
		C97.152,119.014,94.284,119.016,91.417,119.018z M108.604,119.004c-0.024-0.028-0.033-0.06-0.058-0.088
		c-5.707-6.237-14.357-10.723-20.81-16.367c-6.939-6.069-13.402-12.555-19.567-19.385c1.556-1.343,3.162-2.628,4.736-3.953
		c10.672,14.343,23.605,27.441,37.318,39.791L108.604,119.004z M151.011,176.569c-0.471,2.149-6.997,2.827-14.098,2.887
		c-0.316-0.204-0.632-0.41-0.934-0.631c-1.944-1.421-3.707-3.136-5.431-4.81c-0.816-0.791-6.764-6.692-6.409-7.404
		c0.402-0.806-0.662-1.771-1.312-1.013c-2.041,2.381,2.038,6.784,3.353,8.44c1.515,1.909,3.198,3.673,4.967,5.345
		c-3.619-0.11-7.006-0.32-9.39-0.519c-0.549-9.845-0.629-19.709-0.962-29.555c3.176,3.613,6.707,6.931,10.289,10.137
		c3.282,2.938,6.562,5.864,9.714,8.944c2.831,2.765,4.972,6.11,8.447,8.055c0.62,0.348,1.334,0.201,1.827-0.202
		C151.049,176.351,151.035,176.461,151.011,176.569z M154.02,158.856c-0.456-0.29-0.913-0.572-1.338-0.86
		c-3.938-2.672-7.885-5.332-11.8-8.039c-4.272-2.956-8.539-5.949-12.624-9.161c-1.475-1.159-4.588-3.042-5.455-4.704
		c-0.52-0.996-2.243-0.296-1.833,0.772c2.304,5.993,9.112,10.051,14.05,13.854c4.013,3.091,8.104,6.081,12.192,9.071
		c1.687,1.234,3.803,3.358,6.015,4.477c-0.53,3.352-1.109,6.697-1.788,10.024c-2.338-6.841-10.455-11.89-15.858-16.259
		c-5.315-4.297-10.353-8.628-14.976-13.529c-0.26-5.857-0.644-11.707-1.331-17.538c11.645,10.043,23.587,19.657,34.962,29.12
		c0.056,0.047,0.118,0.057,0.175,0.098C154.293,157.076,154.146,157.963,154.02,158.856z M155.655,146.638
		c-0.151,1.173-0.302,2.346-0.452,3.519c-25.45-25.706-55.614-45.865-80.252-72.654c2.002-1.668,4.058-3.26,6.074-4.91
		c20.37,26.251,51.32,43.463,75.498,66.022C156.24,141.399,155.979,144.118,155.655,146.638z M157.162,132.907
		c-9.715-10.894-21.87-19.524-33.566-28.14c-7.71-5.68-15.41-11.349-22.828-17.411c-3.795-3.102-7.339-6.472-10.86-9.873
		c-1.309-1.265-9.793-6.674-3.576-5.651c0.449,0.074,0.617-0.52,0.188-0.68c-0.763-0.383-1.526-0.767-2.289-1.151
		c3.756-3.045,7.48-6.137,11.277-9.116c7.192-5.642,8.674-11.16,14.554-4.206c6.869,8.124,13.872,16.126,21.03,23.997
		c9.472,10.416,20.31,23.9,33.572,29.558c-1.985,2.581-3.424,5.572-4.527,8.771c-9.15-9.272-20.541-17.425-29.833-25.914
		c-7.007-6.403-13.93-12.896-20.904-19.335c-3.781-3.492-7.506-8.416-12.496-10.09c-0.313-0.105-0.655,0.234-0.548,0.548
		c3.716,10.935,19.747,21.768,27.814,29.643c10.399,10.153,21.551,23.872,34.033,32.473
		C157.777,128.502,157.44,130.708,157.162,132.907z"/>
	<path d="M171.246,76.609c0.396-0.594,0.7-1.277,0.738-2.158c0.079-1.85,0.236-3.742,0.423-5.653
		c1.384-0.167,2.457-1.795,1.152-3.059c-0.244-0.236-0.499-0.472-0.745-0.708c1.999-16.768,6.024-35.125-2.572-50.026
		c-6.903-11.967-25.412-6.556-36.054-5.091c-1.683,0.232-3.019,2.271-2.946,3.87c0.386,8.555,0.344,17.079,0.069,25.619
		c-8.483-8.112-16.95-16.242-25.278-24.51c-1.986-1.971-4.636-1.587-6.66,0C65.245,41.644,32.784,72.453,8.063,108.267
		c-2.172,3.147,2.756,6.914,5.277,4.072c27.827-31.366,56.31-61.591,89.07-87.837c13.664,13.45,27.652,26.58,41.423,39.919
		c9.102,8.816,18.158,17.681,27.05,26.709c3.307,3.357,11.654,10.647,12.969,13.299c1.558,3.144,5.719,1.829,6.752-0.882
		C193.05,97.129,181.372,85.532,171.246,76.609z M165.014,24.077c0.618,1.852,1.028,3.741,1.354,5.643
		c-1.495-1.086-3.007-2.142-4.37-3.241c-4.227-3.41-8.363-6.944-12.361-10.621C156.393,15.492,162.601,16.845,165.014,24.077z
		 M163.822,70.227c-2.356-1.995-4.247-3.6-5.288-4.62c-7.192-7.041-14.467-13.999-21.744-20.955
		c0.333-1.895,0.585-3.796,0.821-5.698c9.527,7.47,17.941,16.062,26.956,24.015C164.258,65.409,163.988,67.834,163.822,70.227z
		 M165.237,57.969c-8.58-7.738-17.849-15.173-27.351-21.354c0.243-2.279,0.391-4.567,0.55-6.854
		c4.051,5.161,8.896,9.82,13.463,14.356c3.82,3.793,8.395,9.492,13.6,11.97C165.411,56.714,165.325,57.342,165.237,57.969z
		 M140.027,18.541c1.802,5.69,7.612,10.139,11.762,14.119c3.452,3.309,7.003,6.517,10.58,9.69c1.249,1.108,2.718,2.74,4.309,4.012
		c-0.162,1.707-0.348,3.417-0.566,5.128c-9.468-8.208-19.957-16.097-27.369-26.259c0.142-2.662,0.269-5.325,0.38-7.995
		c2.668-0.432,5.527-0.928,8.351-1.212c-0.333,0.476-0.402,1.13,0.126,1.693c3.742,3.981,7.73,7.716,11.773,11.387
		c2.368,2.151,4.872,4.861,7.665,6.797c0.058,1.443,0.069,2.894,0.029,4.352c-0.142-0.11-0.296-0.217-0.434-0.328
		c-3.307-2.674-6.563-5.412-9.787-8.186c-4.509-3.881-11.799-8.753-14.646-14.114C141.567,16.436,139.62,17.256,140.027,18.541z"/>
</g>
</svg>
